<svg id="visual" viewBox="0 0 900 600" width="900" height="600" xmlns="http://www.w3.org/2000/svg" xmlns:xlink="http://www.w3.org/1999/xlink" version="1.1"><rect x="0" y="0" width="900" height="600" fill="#5F6769"></rect><path d="M0 379L15 381C30 383 60 387 90 385.7C120 384.3 150 377.7 180 374.7C210 371.7 240 372.3 270 375C300 377.7 330 382.3 360 380.7C390 379 420 371 450 368.3C480 365.7 510 368.3 540 374.2C570 380 600 389 630 387.3C660 385.7 690 373.3 720 370.3C750 367.3 780 373.7 810 376.8C840 380 870 380 885 380L900 380L900 601L885 601C870 601 840 601 810 601C780 601 750 601 720 601C690 601 660 601 630 601C600 601 570 601 540 601C510 601 480 601 450 601C420 601 390 601 360 601C330 601 300 601 270 601C240 601 210 601 180 601C150 601 120 601 90 601C60 601 30 601 15 601L0 601Z" fill="#719192"></path><path d="M0 400L15 401.5C30 403 60 406 90 412.8C120 419.7 150 430.3 180 433.3C210 436.3 240 431.7 270 429C300 426.3 330 425.7 360 426.7C390 427.7 420 430.3 450 432.8C480 435.3 510 437.7 540 432.3C570 427 600 414 630 410.8C660 407.7 690 414.3 720 416.8C750 419.3 780 417.7 810 415.5C840 413.3 870 410.7 885 409.3L900 408L900 601L885 601C870 601 840 601 810 601C780 601 750 601 720 601C690 601 660 601 630 601C600 601 570 601 540 601C510 601 480 601 450 601C420 601 390 601 360 601C330 601 300 601 270 601C240 601 210 601 180 601C150 601 120 601 90 601C60 601 30 601 15 601L0 601Z" fill="#637c7f"></path><path d="M0 465L15 462.5C30 460 60 455 90 452.3C120 449.7 150 449.3 180 451.2C210 453 240 457 270 460C300 463 330 465 360 462.8C390 460.7 420 454.3 450 452.7C480 451 510 454 540 458.8C570 463.7 600 470.3 630 472.2C660 474 690 471 720 469.8C750 468.7 780 469.3 810 471C840 472.7 870 475.3 885 476.7L900 478L900 601L885 601C870 601 840 601 810 601C780 601 750 601 720 601C690 601 660 601 630 601C600 601 570 601 540 601C510 601 480 601 450 601C420 601 390 601 360 601C330 601 300 601 270 601C240 601 210 601 180 601C150 601 120 601 90 601C60 601 30 601 15 601L0 601Z" fill="#56686c"></path><path d="M0 498L15 498.7C30 499.3 60 500.7 90 503.5C120 506.3 150 510.7 180 509.5C210 508.3 240 501.7 270 499.7C300 497.7 330 500.3 360 499.7C390 499 420 495 450 497.2C480 499.3 510 507.7 540 511.5C570 515.3 600 514.7 630 512.8C660 511 690 508 720 509.3C750 510.7 780 516.3 810 516.7C840 517 870 512 885 509.5L900 507L900 601L885 601C870 601 840 601 810 601C780 601 750 601 720 601C690 601 660 601 630 601C600 601 570 601 540 601C510 601 480 601 450 601C420 601 390 601 360 601C330 601 300 601 270 601C240 601 210 601 180 601C150 601 120 601 90 601C60 601 30 601 15 601L0 601Z" fill="#495559"></path><path d="M0 557L15 554.8C30 552.7 60 548.3 90 548.5C120 548.7 150 553.3 180 555.7C210 558 240 558 270 555C300 552 330 546 360 544.8C390 543.7 420 547.3 450 546.3C480 545.3 510 539.7 540 539.8C570 540 600 546 630 548.7C660 551.3 690 550.7 720 551.3C750 552 780 554 810 553.5C840 553 870 550 885 548.5L900 547L900 601L885 601C870 601 840 601 810 601C780 601 750 601 720 601C690 601 660 601 630 601C600 601 570 601 540 601C510 601 480 601 450 601C420 601 390 601 360 601C330 601 300 601 270 601C240 601 210 601 180 601C150 601 120 601 90 601C60 601 30 601 15 601L0 601Z" fill="#3c4245"></path></svg>