<svg id="visual" viewBox="0 0 1920 1080" width="1920" height="1080" xmlns="http://www.w3.org/2000/svg" xmlns:xlink="http://www.w3.org/1999/xlink" version="1.1"><rect x="0" y="0" width="1920" height="1080" fill="#5F6769"></rect><path d="M0 684L32 687.5C64 691 128 698 192 695.5C256 693 320 681 384 675.5C448 670 512 671 576 675.7C640 680.3 704 688.7 768 685.8C832 683 896 669 960 664.2C1024 659.3 1088 663.7 1152 674C1216 684.3 1280 700.7 1344 697.7C1408 694.7 1472 672.3 1536 667.2C1600 662 1664 674 1728 679.8C1792 685.7 1856 685.3 1888 685.2L1920 685L1920 1081L1888 1081C1856 1081 1792 1081 1728 1081C1664 1081 1600 1081 1536 1081C1472 1081 1408 1081 1344 1081C1280 1081 1216 1081 1152 1081C1088 1081 1024 1081 960 1081C896 1081 832 1081 768 1081C704 1081 640 1081 576 1081C512 1081 448 1081 384 1081C320 1081 256 1081 192 1081C128 1081 64 1081 32 1081L0 1081Z" fill="#719192"></path><path d="M0 722L32 724.5C64 727 128 732 192 744.2C256 756.3 320 775.7 384 781.2C448 786.7 512 778.3 576 773.5C640 768.7 704 767.3 768 769.2C832 771 896 776 960 780.3C1024 784.7 1088 788.3 1152 778.7C1216 769 1280 746 1344 740.3C1408 734.7 1472 746.3 1536 750.8C1600 755.3 1664 752.7 1728 748.8C1792 745 1856 740 1888 737.5L1920 735L1920 1081L1888 1081C1856 1081 1792 1081 1728 1081C1664 1081 1600 1081 1536 1081C1472 1081 1408 1081 1344 1081C1280 1081 1216 1081 1152 1081C1088 1081 1024 1081 960 1081C896 1081 832 1081 768 1081C704 1081 640 1081 576 1081C512 1081 448 1081 384 1081C320 1081 256 1081 192 1081C128 1081 64 1081 32 1081L0 1081Z" fill="#637c7f"></path><path d="M0 838L32 833.5C64 829 128 820 192 815C256 810 320 809 384 812.3C448 815.7 512 823.3 576 828.8C640 834.3 704 837.7 768 833.7C832 829.7 896 818.3 960 815.5C1024 812.7 1088 818.3 1152 827C1216 835.7 1280 847.3 1344 850.5C1408 853.7 1472 848.3 1536 846.3C1600 844.3 1664 845.7 1728 848.7C1792 851.7 1856 856.3 1888 858.7L1920 861L1920 1081L1888 1081C1856 1081 1792 1081 1728 1081C1664 1081 1600 1081 1536 1081C1472 1081 1408 1081 1344 1081C1280 1081 1216 1081 1152 1081C1088 1081 1024 1081 960 1081C896 1081 832 1081 768 1081C704 1081 640 1081 576 1081C512 1081 448 1081 384 1081C320 1081 256 1081 192 1081C128 1081 64 1081 32 1081L0 1081Z" fill="#56686c"></path><path d="M0 897L32 898.2C64 899.3 128 901.7 192 906.8C256 912 320 920 384 917.8C448 915.7 512 903.3 576 899.8C640 896.3 704 901.7 768 900.5C832 899.3 896 891.7 960 895.5C1024 899.3 1088 914.7 1152 921.7C1216 928.7 1280 927.3 1344 923.8C1408 920.3 1472 914.7 1536 917C1600 919.3 1664 929.7 1728 930.5C1792 931.3 1856 922.7 1888 918.3L1920 914L1920 1081L1888 1081C1856 1081 1792 1081 1728 1081C1664 1081 1600 1081 1536 1081C1472 1081 1408 1081 1344 1081C1280 1081 1216 1081 1152 1081C1088 1081 1024 1081 960 1081C896 1081 832 1081 768 1081C704 1081 640 1081 576 1081C512 1081 448 1081 384 1081C320 1081 256 1081 192 1081C128 1081 64 1081 32 1081L0 1081Z" fill="#495559"></path><path d="M0 1003L32 999.3C64 995.7 128 988.3 192 988.8C256 989.3 320 997.7 384 1001.5C448 1005.3 512 1004.7 576 999C640 993.3 704 982.7 768 980.7C832 978.7 896 985.3 960 983.7C1024 982 1088 972 1152 972.3C1216 972.7 1280 983.3 1344 988C1408 992.7 1472 991.3 1536 992.5C1600 993.7 1664 997.3 1728 996.7C1792 996 1856 991 1888 988.5L1920 986L1920 1081L1888 1081C1856 1081 1792 1081 1728 1081C1664 1081 1600 1081 1536 1081C1472 1081 1408 1081 1344 1081C1280 1081 1216 1081 1152 1081C1088 1081 1024 1081 960 1081C896 1081 832 1081 768 1081C704 1081 640 1081 576 1081C512 1081 448 1081 384 1081C320 1081 256 1081 192 1081C128 1081 64 1081 32 1081L0 1081Z" fill="#3c4245"></path></svg>